<svg width="102" height="102" viewBox="0 0 102 102" fill="none" xmlns="http://www.w3.org/2000/svg">
<rect width="101.351" height="101.351" rx="9" fill="#37255D"></rect>
<path d="M11.4746 16.4746C11.4746 13.7132 13.7132 11.4746 16.4746 11.4746H84.8779C87.6393 11.4746 89.8779 13.7132 89.8779 16.4746V61.1938H11.4746V16.4746Z" fill="#301F52"></path>
<path d="M11.4746 84.8769C11.4746 87.6384 13.7132 89.877 16.4746 89.877H84.8779C87.6393 89.877 89.8779 87.6384 89.8779 84.877V40.1578H11.4746V84.8769Z" fill="#301F52"></path>
<path fill-rule="evenodd" clip-rule="evenodd" d="M49.2393 67.5045C50.874 68.6627 53.1449 67.5038 53.1449 65.5112V35.8386C53.1449 33.8462 50.874 32.6873 49.2393 33.8453L35.8547 43.3264H28.4446C27.0805 43.3264 25.9746 44.4231 25.9746 45.7759V55.574C25.9746 56.9269 27.0805 58.0236 28.4446 58.0236H35.8547L49.2393 67.5045Z" fill="#E7E7E7"></path>
<path d="M69.1139 50.6735L72.0086 47.8003C72.2162 47.5926 72.3809 47.346 72.4932 47.0747C72.6056 46.8034 72.6634 46.5126 72.6634 46.2189C72.6634 45.9252 72.6056 45.6343 72.4932 45.363C72.3809 45.0917 72.2162 44.8451 72.0086 44.6375C71.8009 44.4298 71.5545 44.2651 71.2832 44.1527C71.012 44.0403 70.7212 43.9824 70.4276 43.9824C70.134 43.9824 69.8433 44.0403 69.572 44.1527C69.3008 44.2651 69.0543 44.4298 68.8467 44.6375L65.9742 47.533L63.1018 44.6375C62.8942 44.4298 62.6477 44.2651 62.3765 44.1527C62.1052 44.0403 61.8145 43.9824 61.5209 43.9824C60.9279 43.9824 60.3592 44.218 59.9399 44.6375C59.7323 44.8451 59.5676 45.0917 59.4552 45.363C59.3429 45.6343 59.2851 45.9252 59.2851 46.2189C59.2851 46.812 59.5206 47.3808 59.9399 47.8003L62.8346 50.6735L59.9399 53.5468C59.7312 53.7538 59.5655 54.0002 59.4525 54.2716C59.3395 54.543 59.2812 54.8341 59.2812 55.1281C59.2812 55.4222 59.3395 55.7133 59.4525 55.9847C59.5655 56.2561 59.7312 56.5025 59.9399 56.7095C60.1469 56.9183 60.3932 57.084 60.6645 57.1971C60.9359 57.3102 61.2269 57.3684 61.5209 57.3684C61.8148 57.3684 62.1058 57.3102 62.3772 57.1971C62.6485 57.084 62.8948 56.9183 63.1018 56.7095L65.9742 53.814L68.8467 56.7095C69.0537 56.9183 69.2999 57.084 69.5713 57.1971C69.8426 57.3102 70.1337 57.3684 70.4276 57.3684C70.7216 57.3684 71.0126 57.3102 71.2839 57.1971C71.5553 57.084 71.8016 56.9183 72.0086 56.7095C72.2173 56.5025 72.3829 56.2561 72.496 55.9847C72.609 55.7133 72.6672 55.4222 72.6672 55.1281C72.6672 54.8341 72.609 54.543 72.496 54.2716C72.3829 54.0002 72.2173 53.7538 72.0086 53.5468L69.1139 50.6735Z" fill="#E7E7E7"></path>
</svg>