<svg width="102" height="102" viewBox="0 0 102 102" fill="none" xmlns="http://www.w3.org/2000/svg">
<rect width="101.351" height="101.351" rx="9" fill="#8B62D8"></rect>
<path d="M11.4746 16.4746C11.4746 13.7132 13.7132 11.4746 16.4746 11.4746H84.8781C87.6395 11.4746 89.8781 13.7132 89.8781 16.4746V61.1939H11.4746V16.4746Z" fill="#9F87E3"></path>
<path fill-rule="evenodd" clip-rule="evenodd" d="M49.2374 67.5045C50.872 68.6627 53.143 67.5038 53.143 65.5112V35.8386C53.143 33.8462 50.872 32.6873 49.2374 33.8453L35.8528 43.3264H28.4427C27.0785 43.3264 25.9727 44.4231 25.9727 45.7759V55.574C25.9727 56.9269 27.0785 58.0236 28.4427 58.0236H35.8528L49.2374 67.5045ZM67.2056 35.61C68.3092 34.8082 69.854 35.0528 70.6557 36.1565C73.7218 40.3764 75.373 45.4587 75.373 50.675C75.373 55.8912 73.7218 60.9735 70.6557 65.1933C69.854 66.2969 68.3092 66.5417 67.2056 65.7399C66.102 64.9379 65.8572 63.3934 66.6592 62.2898C69.112 58.9137 70.4329 54.8478 70.4329 50.675C70.4329 46.5019 69.112 42.4361 66.6592 39.0601C65.8572 37.9565 66.102 36.4118 67.2056 35.61ZM59.2123 41.4175C60.3159 40.6157 61.8607 40.8603 62.6625 41.964C64.5022 44.496 65.4929 47.5454 65.4929 50.675C65.4929 53.8047 64.5022 56.8542 62.6625 59.386C61.8607 60.4896 60.3159 60.7344 59.2123 59.9326C58.1087 59.1306 57.8642 57.5861 58.666 56.4825C59.8923 54.7945 60.5528 52.7614 60.5528 50.675C60.5528 48.5885 59.8923 46.5557 58.666 44.8677C57.8642 43.764 58.1087 42.2193 59.2123 41.4175Z" fill="#E7E7E7"></path>
</svg>